<svg width="276" height="49" viewBox="0 0 276 49" fill="none" xmlns="http://www.w3.org/2000/svg">
<g clip-path="url(#clip0_4_442)">
<path d="M143.543 48.9999C139.245 48.9999 134.938 47.3651 131.667 44.0954L133.411 42.3515C139 47.9373 148.077 47.9373 153.666 42.3515L169.104 26.9204C174.692 21.3347 174.692 12.2613 169.104 6.67553C166.396 3.96895 162.807 2.47942 158.981 2.47942C155.156 2.47942 151.557 3.96895 148.859 6.67553L135.283 20.2448L133.539 18.5009L147.114 4.93169C150.285 1.7619 154.502 0.0180664 158.99 0.0180664C163.479 0.0180664 167.695 1.7619 170.867 4.93169C174.038 8.10148 175.783 12.3157 175.783 16.8025C175.783 21.2892 174.038 25.5035 170.867 28.6733L155.428 44.1044C152.157 47.3741 147.85 49.009 143.552 49.009L143.543 48.9999Z" fill="#193A65"/>
<path d="M143.525 49C139.227 49 134.92 47.3651 131.648 44.0954L116.21 28.6643C113.039 25.4945 111.294 21.2802 111.294 16.7935C111.294 12.3067 113.039 8.09244 116.21 4.92266C119.381 1.75287 123.598 0.0090332 128.086 0.0090332C132.575 0.0090332 136.792 1.75287 139.963 4.92266L155.401 20.3538C161.953 26.9023 161.953 37.5469 155.401 44.0954C152.13 47.3651 147.823 49 143.525 49ZM128.086 2.47039C124.261 2.47039 120.663 3.95991 117.964 6.66649C115.256 9.37307 113.766 12.9697 113.766 16.7844C113.766 20.599 115.256 24.2048 117.964 26.9023L133.402 42.3334C138.981 47.91 148.068 47.91 153.656 42.3334C159.245 36.7477 159.245 27.6743 153.656 22.0885L138.218 6.65741C135.51 3.95083 131.912 2.4613 128.096 2.4613L128.086 2.47039Z" fill="#193A65"/>
<path d="M131.167 28.5552C127.923 28.5552 125.288 25.9213 125.288 22.6789C125.288 19.4364 127.923 16.8025 131.167 16.8025C134.411 16.8025 137.046 19.4364 137.046 22.6789C137.046 25.9213 134.411 28.5552 131.167 28.5552ZM131.167 19.2729C129.286 19.2729 127.759 20.7988 127.759 22.6789C127.759 24.5589 129.286 26.0848 131.167 26.0848C133.048 26.0848 134.574 24.5589 134.574 22.6789C134.574 20.7988 133.048 19.2729 131.167 19.2729Z" fill="#193A65"/>
<path d="M170.858 28.6552L169.113 26.9113C174.701 21.3256 174.701 12.2522 169.113 6.66649C166.405 3.95991 162.816 2.47039 158.99 2.47039C155.165 2.47039 151.567 3.95991 148.868 6.66649L135.292 20.2357L133.548 18.4919L147.123 4.92266C150.294 1.75287 154.511 0.0090332 159 0.0090332C163.488 0.0090332 167.705 1.75287 170.876 4.92266C177.427 11.4711 177.427 22.1158 170.876 28.6643L170.858 28.6552Z" fill="#193A65"/>
<path d="M16.1108 3.84183C19.5092 3.62385 22.9803 3.51486 26.1152 3.40587C33.7844 3.11523 36.4923 3.26055 37.1829 3.00624C37.8735 2.78826 37.8371 3.0789 37.5827 3.33321C37.4373 3.51486 36.8194 3.98715 36.2288 3.98715C35.6836 4.02348 30.5314 4.02348 25.9244 4.20513C22.1262 4.35045 18.8004 4.49577 15.9199 4.71375C15.4474 6.97529 14.8205 10.3358 14.2389 14.9406C13.3666 21.589 11.6492 31.7341 11.5038 32.9421C11.3948 34.1501 10.5497 35.4216 10.5497 34.477C10.5497 33.5325 11.2039 28.3827 13.2848 15.0859C14.0481 10.1178 14.6751 6.87538 15.1476 4.75008C12.8123 4.93173 10.7678 5.11338 9.12308 5.36769C4.67059 6.05796 1.12677 6.93896 0.98138 7.81087C0.872339 8.42848 0.472524 8.35582 0.290789 7.95619C0.0363611 7.26593 0.327136 6.53024 6.35163 5.10429C9.01404 4.48669 12.1217 4.1143 15.3384 3.89632C15.9926 1.15341 16.4015 0.753785 16.6923 0.463145C17.2375 -0.0454738 17.7191 0.572135 17.3102 0.826445C16.8741 1.08075 16.656 1.40772 16.4379 2.32505C16.3288 2.72468 16.2198 3.2333 16.1108 3.82366V3.84183Z" fill="#193A65"/>
<path d="M10.686 35.0402C10.686 35.0402 10.686 35.0402 10.6769 35.0402C10.5497 35.0402 10.3316 34.9494 10.3316 34.4771C10.3316 33.26 11.3312 26.1757 13.0758 15.0497C13.721 10.899 14.3207 7.52936 14.875 5.01351C12.5761 5.19516 10.7133 5.36772 9.18671 5.60387C3.4439 6.49395 1.31761 7.37495 1.23583 7.85632C1.14496 8.37403 0.881445 8.48302 0.726971 8.51026C0.472543 8.54659 0.236288 8.37403 0.0909004 8.06522C0.0182066 7.86541 -0.0544871 7.58385 0.109074 7.27505C0.399849 6.7301 1.36304 6.05799 6.3153 4.88635C8.7142 4.33232 11.6129 3.93269 15.1658 3.68746C15.8109 1.03538 16.2289 0.617585 16.5379 0.308781C16.7923 0.0635537 17.0831 -0.00910622 17.3466 0.0817186C17.5465 0.154378 17.6919 0.336028 17.71 0.535843C17.7282 0.735657 17.6374 0.917307 17.4556 1.03538C17.0922 1.24428 16.9013 1.4895 16.6833 2.38867C16.6015 2.70656 16.5106 3.0971 16.4106 3.57847C19.4093 3.38774 22.5078 3.28784 25.252 3.18793L26.1244 3.16068C29.5319 3.03353 31.9217 2.98811 33.6663 2.96087C35.729 2.92454 36.7649 2.90637 37.1193 2.77922C37.3101 2.71564 37.7826 2.57032 37.9553 2.86096C38.0643 3.03353 37.9916 3.26059 37.7735 3.48765C37.6009 3.68746 36.9375 4.22333 36.247 4.22333C36.0743 4.23241 35.4201 4.2415 34.4205 4.25058C32.4124 4.27783 29.0503 4.31416 25.9517 4.44131C22.0535 4.58663 18.8822 4.73195 16.129 4.94085C15.502 7.94715 14.9477 11.3258 14.4843 14.9679C13.9027 19.4002 12.9486 25.331 12.3216 29.2456C12.0127 31.1711 11.7946 32.5698 11.7401 32.9603C11.6674 33.7777 11.1767 35.0311 10.686 35.0311V35.0402ZM15.1658 4.52305C15.2294 4.52305 15.3021 4.5503 15.3475 4.6048C15.3929 4.65929 15.4202 4.74103 15.402 4.81369C14.8386 7.34771 14.2117 10.8172 13.5392 15.1314C11.1767 30.2265 10.8314 33.6415 10.8041 34.3953C10.9859 34.1047 11.2221 33.5325 11.2857 32.924C11.3403 32.5153 11.5583 31.1166 11.8673 29.182C12.4943 25.2674 13.4393 19.3457 14.0208 14.9134C14.4934 11.1805 15.0567 7.73825 15.7019 4.66837C15.7201 4.56847 15.8109 4.48672 15.9109 4.47764C18.7187 4.26874 21.9445 4.12342 25.9244 3.96902C29.023 3.84187 32.3942 3.80554 34.4024 3.77829C35.3565 3.76921 36.047 3.76012 36.2197 3.75104C36.7285 3.75104 37.2828 3.32417 37.401 3.18793C37.3646 3.19701 37.3101 3.20609 37.2556 3.22426C36.8467 3.37866 35.9107 3.39683 33.6572 3.43316C31.9126 3.4604 29.5228 3.50582 26.1244 3.63297L25.252 3.66022C22.417 3.76012 19.2003 3.86911 16.1199 4.06893C16.0472 4.06893 15.9745 4.04168 15.9291 3.98719C15.8836 3.93269 15.8564 3.86003 15.8745 3.78737C15.9927 3.1516 16.1017 2.65206 16.2107 2.2706C16.4379 1.3351 16.6742 0.935472 17.1921 0.63575C17.2012 0.63575 17.2285 0.608503 17.2285 0.590338C17.2285 0.572173 17.2012 0.535843 17.1648 0.52676C17.0831 0.499513 16.9649 0.544925 16.8559 0.653915C16.6015 0.908225 16.2107 1.29877 15.5747 3.96902C15.5474 4.06893 15.4656 4.14159 15.3657 4.15067C11.7492 4.3959 8.82324 4.78644 6.41526 5.34956C2.7624 6.21239 0.836011 6.92083 0.517976 7.50211C0.454369 7.6111 0.454369 7.72009 0.517976 7.88357C0.572496 7.99256 0.636104 8.03797 0.654277 8.03797C0.654277 8.03797 0.717884 7.99256 0.754231 7.77458C0.808751 7.43853 0.981399 6.40313 9.09584 5.14066C10.7133 4.88635 12.6851 4.71379 15.1385 4.51397C15.1385 4.51397 15.1476 4.51397 15.1567 4.51397L15.1658 4.52305Z" fill="#193A65"/>
<path d="M31.7944 17.6654C31.649 17.2476 31.0675 16.9569 30.704 16.7662C29.6863 16.2485 28.4959 16.1122 27.3965 16.4483C26.5241 16.7117 25.7608 17.2839 25.1066 17.9015C24.7795 18.2103 24.4796 18.5282 24.1888 18.8642C24.0616 19.0186 23.9344 19.164 23.8072 19.3274C23.7345 19.4183 23.5619 19.5727 23.5346 19.6817C23.5891 19.4364 23.6618 19.1185 23.7709 18.7008C23.9344 17.956 23.9435 17.9651 24.0798 17.5836C24.2161 17.2021 24.2797 17.0296 24.2524 16.9024C24.2434 16.8116 24.1798 16.5936 23.8254 16.53C23.471 16.4574 22.8531 16.5664 22.6441 16.9478C22.4715 17.3293 21.9535 20.2811 21.8445 21.6344C21.7809 22.4337 21.799 23.1512 21.8081 23.3237C21.8081 23.3601 21.8081 23.3873 21.8081 23.4146C21.8081 23.6507 22.1807 24.0594 22.4533 24.0594C22.7168 24.0594 22.8077 23.8414 23.1075 23.1148L23.3892 21.9341C23.8072 20.9441 24.516 20.2084 25.2702 19.4455C26.3424 18.3738 28.0507 17.0296 29.6318 17.5291C30.0498 17.6654 30.4496 17.8288 30.8403 18.0377C31.1584 18.2103 31.4855 18.3284 31.7308 17.9742C31.8035 17.8652 31.8217 17.7653 31.7853 17.6654H31.7944Z" fill="#193A65"/>
<path d="M37.6554 18.719C37.3919 19.0188 36.983 19.5001 36.2833 20.2449C35.0203 21.58 32.903 23.2149 32.2306 23.2149C31.7127 23.2149 31.4128 22.9152 31.4855 21.9524C31.5582 21.0987 32.0035 20.0178 32.3397 19.3185C32.7849 18.3194 33.4937 17.3113 33.8662 17.2386C34.2388 17.2023 34.3115 17.5383 34.3115 17.6473C34.3115 17.947 33.421 18.6918 32.903 19.6909C32.4941 20.5083 32.2306 21.3257 32.1579 21.6254C32.0489 22.2158 32.1943 22.4792 32.3851 22.4792C32.9757 22.4792 35.0566 20.7354 35.8381 19.8816C37.2465 18.3557 38.1461 17.2114 38.664 17.3203C39.1093 17.4293 38.9275 17.6927 38.4005 18.8099C37.9553 19.7726 37.3192 21.3348 36.9921 22.5973C36.6559 23.9324 37.0284 24.3411 37.4737 24.3411C40.1906 24.3411 47.3237 19.0278 50.7039 17.2114C50.8857 17.1387 51.6308 17.175 51.0401 17.5837C47.6962 19.7363 40.4087 25.0859 37.401 25.0859C36.2833 25.0859 35.8744 24.2684 36.2833 22.5246C36.5468 21.3348 37.1375 19.7363 37.6554 18.7372V18.719Z" fill="#193A65"/>
<path d="M37.3918 25.3129C36.8648 25.3129 36.4741 25.1494 36.2106 24.8224C35.838 24.3501 35.7835 23.5781 36.0379 22.4519C36.1924 21.7435 36.4741 20.8534 36.8012 20.0269C36.6921 20.1449 36.574 20.2721 36.4468 20.3992C35.2746 21.6435 33.0393 23.4419 32.2215 23.4419C31.9125 23.4419 31.6763 23.3511 31.5127 23.1694C31.2856 22.9242 31.1947 22.5245 31.2401 21.916C31.3128 21.035 31.7581 19.9451 32.1215 19.1913C32.4759 18.4011 33.2483 17.0932 33.8117 16.9751C34.0843 16.9479 34.2387 17.0387 34.3296 17.1205C34.4932 17.2658 34.5477 17.4838 34.5477 17.62C34.5477 17.8471 34.3569 18.0832 34.0297 18.4738C33.739 18.828 33.3664 19.273 33.1029 19.7816C32.6849 20.6081 32.4396 21.4165 32.376 21.6617C32.3124 22.0068 32.3578 22.1703 32.385 22.2157C32.8666 22.1703 34.7658 20.6536 35.6472 19.6908C35.9198 19.4002 36.1742 19.1186 36.4105 18.8552C37.5281 17.62 38.146 16.9297 38.7003 17.0569C38.8366 17.0932 39.0183 17.1568 39.1001 17.3294C39.2183 17.5837 39.091 17.8652 38.773 18.5373L38.6094 18.8825C38.1733 19.827 37.5463 21.3802 37.2101 22.6335C36.992 23.5145 37.1192 23.8506 37.2101 23.9687C37.2646 24.0413 37.3464 24.0777 37.4645 24.0777C39.2819 24.0777 43.3618 21.471 46.6421 19.382C48.1323 18.4283 49.5408 17.5383 50.5857 16.9751C50.5857 16.9751 50.6039 16.9751 50.613 16.9661C50.7947 16.8934 51.3127 16.8662 51.4672 17.1477C51.5398 17.284 51.5489 17.5019 51.1764 17.7562C50.5676 18.1468 49.8588 18.6282 49.0319 19.1822C45.1973 21.7616 39.9361 25.3038 37.4009 25.3038L37.3918 25.3129ZM37.6553 18.4738C37.7008 18.4738 37.7462 18.4828 37.7916 18.5192C37.8916 18.5918 37.9279 18.719 37.8734 18.828C37.3373 19.8634 36.7648 21.4346 36.5195 22.5609C36.3014 23.5055 36.3287 24.1866 36.5922 24.5227C36.7558 24.7316 37.0193 24.8315 37.3918 24.8315C39.7907 24.8315 45.1882 21.1985 48.7593 18.7916C49.5589 18.2558 50.2495 17.7926 50.8311 17.4111C50.8129 17.4111 50.8038 17.4111 50.7947 17.4111C49.7679 17.9651 48.3777 18.8552 46.9056 19.7907C43.3981 22.025 39.4273 24.559 37.4736 24.559C37.2101 24.559 36.992 24.4591 36.8466 24.2593C36.5831 23.9232 36.5558 23.3329 36.7558 22.5064C37.092 21.2258 37.7371 19.6454 38.1824 18.6736L38.3459 18.3284C38.5095 17.9833 38.664 17.6563 38.6731 17.5383C38.664 17.5383 38.6367 17.5292 38.6004 17.5201C38.3278 17.4565 37.5372 18.3284 36.7739 19.1731C36.5377 19.4365 36.2832 19.7181 36.0106 20.0087C35.4018 20.6717 33.1483 22.688 32.376 22.688C32.2487 22.688 32.1215 22.6335 32.0307 22.5245C31.8671 22.3338 31.8308 21.9978 31.9125 21.5527C32.0034 21.1713 32.2851 20.3357 32.6758 19.5546C32.9666 19.0005 33.3482 18.5373 33.6572 18.165C33.8298 17.9561 34.0479 17.6927 34.0661 17.6109C34.0661 17.6018 34.0479 17.5201 34.0025 17.4747C33.9934 17.4747 33.9661 17.4384 33.8753 17.4474C33.6844 17.4838 33.0211 18.3194 32.5486 19.382C32.2033 20.1086 31.7853 21.1349 31.7126 21.9433C31.6763 22.3792 31.7308 22.688 31.858 22.8243C31.9034 22.8788 31.9943 22.9423 32.2215 22.9423C32.7667 22.9423 34.793 21.4256 36.1015 20.045C36.7012 19.4183 37.0829 18.9733 37.3373 18.6736L37.4645 18.5283C37.51 18.4738 37.5736 18.4465 37.6463 18.4465L37.6553 18.4738Z" fill="#193A65"/>
<path d="M54.2296 14.7044C54.4931 14.8861 53.748 15.0405 53.3391 14.7408C52.5213 14.1504 51.5217 12.6609 51.5217 11.0624C51.5217 8.68274 53.1937 6.15781 56.0197 4.18691C59.9179 1.43492 64.1614 0.290527 67.2781 0.290527C71.4762 0.290527 76.0468 2.67014 76.0468 9.65457C76.0468 15.1131 73.2208 22.3973 68.2413 27.5198C64.0432 31.9067 58.0551 34.7676 54.1205 34.7676C50.186 34.7676 48.4323 32.7604 48.4323 29.9358C48.4323 26.2937 50.6585 21.3528 56.6103 17.193C57.1282 16.857 57.6098 16.5209 58.1369 16.2303C59.4363 11.1804 60.772 6.53019 61.0355 5.86717C61.4444 4.67737 61.7806 5.64011 61.5171 6.61194C60.6993 9.36393 59.8088 12.5973 58.991 15.7489C63.2618 13.4783 66.6875 13.4783 67.06 13.5237C67.5053 13.56 67.3235 13.9324 66.2422 14.0051C65.279 14.0777 62.344 14.6409 58.6275 17.0477C57.628 20.9441 56.6921 24.6225 56.1741 27.1111C55.9106 28.3372 55.6198 27.3745 55.6925 26.9295C56.0651 24.5862 56.8829 21.0985 57.7734 17.6381L57.0283 18.1921C51.6035 22.3519 49.0047 27.2201 49.0047 29.9267C49.0047 31.8612 50.604 33.5324 54.2114 33.5324C58.2277 33.5324 64.9156 30.1174 67.6325 26.9204C72.3121 21.5708 75.1018 15.4401 75.1018 9.05512C75.1018 4.41398 72.3485 1.21694 67.1509 1.21694C63.9524 1.21694 59.7907 2.77913 56.7466 4.82269C53.6662 6.86625 52.176 9.42751 52.176 11.2894C52.176 12.4066 52.6939 13.6327 54.2568 14.7044H54.2296Z" fill="#193A65"/>
<path d="M54.1206 35.0038C50.3587 35.0038 48.196 33.1601 48.196 29.9358C48.196 25.4581 51.2946 20.6263 56.474 16.9933C56.6285 16.8934 56.7739 16.8025 56.9193 16.7026C57.2646 16.4756 57.5826 16.2667 57.9279 16.0669C59.2091 11.0987 60.5358 6.47576 60.8084 5.77641C60.872 5.58568 61.0901 4.95898 61.4899 5.08614C61.917 5.21329 61.8988 6.10338 61.7443 6.66649C60.9811 9.21867 60.1451 12.2613 59.3545 15.2858C63.1982 13.3694 66.4058 13.2059 67.0782 13.2785C67.5053 13.3149 67.5235 13.5873 67.5235 13.6418C67.5235 13.9688 67.0601 14.1868 66.2604 14.2413C65.9333 14.2685 62.9165 14.5683 58.8366 17.2022C57.7371 21.4891 56.9011 24.8315 56.4104 27.1657C56.3468 27.4472 56.2287 28.0194 55.838 27.9468C55.4563 27.8741 55.4109 27.1475 55.4472 26.8841C55.838 24.45 56.674 20.9532 57.3645 18.2376L57.1646 18.3829C53.221 21.4074 49.2319 26.3392 49.2319 29.9267C49.2319 32.4062 51.7944 33.2873 54.1933 33.2873C58.0006 33.2873 64.6793 29.9903 67.4235 26.7569C72.2758 21.2166 74.8383 15.095 74.8383 9.0461C74.8383 4.28688 71.9578 1.44406 67.1237 1.44406C64.1614 1.44406 60.027 2.8791 56.8466 5.0044C53.5481 7.18419 52.385 9.74545 52.385 11.2713C52.385 12.5065 53.0484 13.5873 54.3659 14.4956C54.5113 14.6046 54.5295 14.7317 54.5204 14.7953C54.5204 14.8589 54.475 14.986 54.3023 15.0678C54.0661 15.1768 53.5481 15.1768 53.1937 14.9225C52.2669 14.2504 51.2764 12.6609 51.2764 11.0533C51.2764 8.60106 52.9575 6.02164 55.8743 3.98716C59.3818 1.52581 63.6435 0.0544434 67.2782 0.0544434C71.6307 0.0544434 76.2922 2.57937 76.2922 9.65463C76.2922 15.5946 73.13 22.8424 68.4231 27.6924C64.3613 31.934 58.3459 35.0129 54.1297 35.0129L54.1206 35.0038ZM61.3536 5.70375C61.3264 5.75824 61.2991 5.83999 61.2627 5.93989C60.9901 6.63016 59.6362 11.3803 58.3732 16.2848C58.355 16.3484 58.3187 16.4029 58.2641 16.4302C57.9007 16.6391 57.5554 16.8661 57.1919 17.1023C57.0465 17.1931 56.9011 17.293 56.7557 17.3838C51.7035 20.9169 48.6867 25.6035 48.6867 29.9267C48.6867 32.8876 50.6222 34.5134 54.1297 34.5134C58.2278 34.5134 64.0978 31.498 68.0778 27.3473C72.7029 22.579 75.8197 15.4674 75.8197 9.64555C75.8197 5.24054 73.5753 0.526733 67.2872 0.526733C63.7525 0.526733 59.5908 1.97085 56.1651 4.38679C53.3755 6.33044 51.7671 8.76455 51.7671 11.0624C51.7671 12.5156 52.6576 13.9416 53.4936 14.5501C53.5754 14.6137 53.6753 14.6409 53.7753 14.6591C52.2578 13.4784 51.9216 12.1886 51.9216 11.2895C51.9216 9.12784 53.7571 6.51209 56.6013 4.62293C59.8543 2.44314 64.0887 0.980857 67.1419 0.980857C72.2759 0.980857 75.3381 3.99624 75.3381 9.05518C75.3381 15.2222 72.7302 21.4528 67.8052 27.0839C64.9338 30.4626 58.2005 33.7777 54.2115 33.7777C50.2224 33.7777 48.7685 31.7886 48.7685 29.9358C48.7685 27.1929 51.3128 22.2884 56.892 18.0105L57.6371 17.4474C57.7189 17.3838 57.828 17.3838 57.9188 17.4474C58.0097 17.511 58.046 17.6109 58.0188 17.7108C57.3009 20.49 56.3559 24.3501 55.9379 26.9749C55.9288 27.0294 55.9288 27.093 55.9379 27.1566C55.9379 27.1293 55.947 27.1021 55.9561 27.0748C56.4468 24.7134 57.2918 21.3347 58.4095 16.9933C58.4277 16.9388 58.464 16.8843 58.5095 16.848C61.9352 14.6227 64.6612 13.9961 65.7516 13.8235C64.3522 13.9779 61.9442 14.4593 59.1183 15.9579C59.0365 16.0033 58.9275 15.9942 58.8548 15.9306C58.7821 15.8761 58.7457 15.7762 58.773 15.6854C59.5999 12.4884 60.4995 9.23683 61.2991 6.53934C61.39 6.1942 61.39 5.89448 61.3627 5.70375H61.3536Z" fill="#193A65"/>
<path d="M78.3548 18.719C78.1731 18.5374 77.9823 18.3466 77.8732 18.0832C77.2008 16.6754 78.4275 15.0043 80.0631 15.0043C81.6987 15.0043 82.6983 16.5301 82.6983 18.8643V18.9733C82.8437 18.9733 82.9981 18.9733 83.1799 18.937C85.0426 18.7917 88.4956 17.8925 90.0585 17.3385C90.322 17.2295 90.5038 17.6382 90.322 17.7109C89.5042 18.0469 85.2698 19.4184 83.0708 19.6091C82.9254 19.6454 82.771 19.6454 82.6619 19.6454C82.3257 23.2148 79.6906 26.1121 77.9823 26.1121C76.274 26.1121 75.8651 23.2512 77.3462 20.3539C77.646 19.7181 78.0186 19.1641 78.3457 18.719H78.3548ZM81.8441 19.6454C80.8446 19.6454 79.7632 19.5001 78.9818 19.1277C78.6819 19.5364 78.3457 20.0178 78.0913 20.4992C76.6829 23.2512 77.1281 25.44 77.8278 25.44C79.4997 25.44 81.5079 22.9151 81.8441 19.6454ZM79.427 18.5283C80.0995 18.828 80.99 18.9733 81.9168 18.9733V18.6009C81.9168 16.6664 80.99 15.631 79.945 15.631C78.9 15.631 78.0095 16.5937 78.5365 17.7109C78.6092 17.8925 78.7183 18.0106 78.8364 18.1559C79.3907 17.5655 79.8814 17.2295 79.9904 17.2295C80.2176 17.2295 80.3266 17.3385 80.3266 17.4929C80.3266 17.5655 79.9177 17.9379 79.4361 18.5374L79.427 18.5283Z" fill="#193A65"/>
<path d="M77.9823 26.3482C77.4189 26.3482 76.9464 26.0758 76.6284 25.5581C75.9014 24.3773 76.1104 22.243 77.1281 20.2448C77.3553 19.7544 77.6552 19.2548 78.0277 18.7462C77.8823 18.5918 77.7369 18.4101 77.637 18.1831C77.3099 17.4928 77.3735 16.6936 77.8096 16.0033C78.2912 15.2404 79.1545 14.7681 80.0541 14.7681C81.7714 14.7681 82.8891 16.3212 82.9345 18.7371C82.9982 18.7371 83.0618 18.728 83.1345 18.7099C83.1435 18.7099 83.1526 18.7099 83.1617 18.7099C85.0336 18.5645 88.4502 17.6745 89.9768 17.1295C90.1221 17.0659 90.2857 17.0841 90.422 17.1931C90.5674 17.3021 90.6492 17.4928 90.631 17.6654C90.6128 17.8016 90.531 17.9106 90.4129 17.956C89.6315 18.2739 85.3789 19.6635 83.1163 19.8633C83.0345 19.8815 82.9618 19.8906 82.8891 19.8997C82.4711 23.4055 79.8814 26.3664 77.9914 26.3664L77.9823 26.3482ZM80.0631 15.2404C79.3271 15.2404 78.6274 15.6309 78.2276 16.2576C77.8823 16.8116 77.8278 17.4383 78.0913 17.9833C78.1913 18.2103 78.3548 18.3738 78.5275 18.5464C78.6093 18.6281 78.6184 18.7644 78.5457 18.8643C78.1368 19.4183 77.8096 19.936 77.5643 20.4537C76.4648 22.5881 76.5284 24.4682 77.0373 25.3037C77.2644 25.6761 77.5825 25.8669 77.9732 25.8669C79.4907 25.8669 82.0804 23.1875 82.4166 19.6181C82.4257 19.491 82.5347 19.4001 82.6529 19.4001C82.7528 19.4001 82.88 19.4001 83.0072 19.3729C83.0163 19.3729 83.0345 19.3729 83.0436 19.3729C84.5156 19.2457 86.9418 18.5736 88.5865 18.0559C86.8782 18.5464 84.6247 19.0641 83.2071 19.1822C83.0072 19.2185 82.8437 19.2185 82.6892 19.2185C82.5529 19.2185 82.4529 19.1095 82.4529 18.9823V18.8733C82.4529 16.6391 81.5352 15.2494 80.0541 15.2494L80.0631 15.2404ZM77.8369 25.6852C77.6006 25.6852 77.3916 25.549 77.2372 25.2856C76.7374 24.4591 76.7919 22.5154 77.8914 20.3901C78.1731 19.8633 78.5457 19.3366 78.8001 18.9823C78.8637 18.8915 78.9909 18.8552 79.1 18.9097C79.7724 19.2276 80.7537 19.4092 81.8623 19.4092C81.9259 19.4092 81.9986 19.4365 82.044 19.491C82.0895 19.5455 82.1077 19.609 82.1077 19.6726C81.7442 23.2148 79.5725 25.6852 77.8551 25.6852H77.8369ZM79.0636 19.4274C78.8274 19.7543 78.5366 20.1903 78.3003 20.6172C77.1827 22.797 77.3008 24.4863 77.637 25.0404C77.7006 25.1493 77.7733 25.2038 77.8278 25.2038C79.2999 25.2038 81.1717 22.9423 81.5715 19.8815C80.9082 19.8633 79.8996 19.7725 79.0636 19.4274ZM81.9168 19.2185C80.9264 19.2185 80.0086 19.055 79.3271 18.7553C79.2544 18.728 79.209 18.6645 79.1908 18.5918C79.1726 18.5191 79.1908 18.4465 79.2363 18.3829C79.4816 18.0832 79.6997 17.8379 79.8632 17.6654C79.9268 17.6018 79.9905 17.5291 80.0359 17.4837C80.0359 17.4837 80.0177 17.4837 80.0086 17.4837C79.9087 17.5291 79.5179 17.7925 79.0091 18.3375C78.9636 18.392 78.891 18.4192 78.8183 18.4101C78.7456 18.4101 78.682 18.3738 78.6365 18.3102C78.6093 18.2739 78.5911 18.2467 78.5638 18.2194C78.473 18.1013 78.3821 17.9923 78.3094 17.8107C78.0641 17.2748 78.0913 16.7117 78.3912 16.2394C78.7183 15.7217 79.318 15.4038 79.945 15.4038C81.0082 15.4038 82.1531 16.412 82.1531 18.619V18.9914C82.1531 19.1277 82.0441 19.2276 81.9168 19.2276V19.2185ZM79.8269 18.4283C80.3448 18.61 80.99 18.7099 81.6806 18.728V18.6009C81.6806 16.7208 80.781 15.867 79.9541 15.867C79.4907 15.867 79.0454 16.1123 78.8092 16.4847C78.6002 16.8207 78.582 17.2203 78.7637 17.6109C78.791 17.6835 78.8274 17.738 78.8637 17.7925C79.2181 17.4383 79.7451 16.9842 79.9904 16.9842C80.3812 16.9842 80.5629 17.2476 80.5629 17.4837C80.5629 17.6109 80.4902 17.6926 80.2267 17.9833C80.1177 18.1013 79.9814 18.2557 79.8269 18.4283Z" fill="#193A65"/>
<path d="M88.5775 18.0105C89.7678 17.0114 90.6947 16.8207 91.3307 16.8207C92.1849 16.8207 92.1122 17.7471 91.7396 17.6018C91.258 17.4201 90.3312 17.5654 89.1408 18.4555C87.9505 19.3456 87.5052 20.2357 87.5416 20.8715C87.5779 21.6526 88.7319 21.9886 89.9586 21.8342C92.7119 21.5345 98.7637 18.7552 101.408 17.3384C101.59 17.2294 102.371 17.2657 101.78 17.6744C98.9908 19.4546 92.7119 22.0613 90.1858 22.4337C88.4412 22.697 86.9509 22.3973 86.7692 21.1349C86.6602 20.2811 87.2508 19.1276 88.5865 18.0105H88.5775Z" fill="#193A65"/>
<path d="M89.0863 22.7607C88.3866 22.7607 87.6778 22.6426 87.169 22.2611C86.8055 21.9887 86.5874 21.6254 86.5238 21.1712C86.3966 20.1631 87.0872 18.946 88.432 17.8289C89.4225 16.9933 90.3766 16.5846 91.3398 16.5846C91.7487 16.5846 92.0667 16.7662 92.1939 17.0841C92.2939 17.3203 92.2576 17.5928 92.1122 17.7472C91.994 17.8652 91.8214 17.9016 91.6578 17.838C91.2762 17.6927 90.422 17.8198 89.2862 18.6645C88.3048 19.4002 87.7415 20.2267 87.7869 20.8715C87.7869 21.0259 87.8687 21.1622 88.005 21.2802C88.3593 21.58 89.1226 21.7162 89.9404 21.6163C92.7664 21.3075 98.9272 18.4193 101.299 17.1477C101.471 17.0478 102.017 16.9933 102.189 17.2658C102.262 17.3839 102.326 17.6109 101.917 17.8925C99.0544 19.7271 92.721 22.3156 90.2221 22.688C89.8768 22.7425 89.4952 22.7788 89.0954 22.7788L89.0863 22.7607ZM91.3216 17.066C90.4766 17.066 89.6315 17.4383 88.7228 18.2013C87.5234 19.2004 86.8782 20.2812 86.9873 21.1077C87.0327 21.4346 87.1872 21.689 87.4416 21.8797C87.9595 22.2702 88.9136 22.3792 90.1313 22.1976C92.5483 21.8434 98.6546 19.3457 101.517 17.5473C101.517 17.5473 101.517 17.5473 101.508 17.5473C99.0998 18.8371 92.8573 21.7616 89.9677 22.0704C89.0045 22.1885 88.1413 22.025 87.6688 21.6254C87.4325 21.4256 87.2962 21.1622 87.2871 20.8806C87.2417 20.0632 87.8596 19.1095 88.9772 18.2649C90.0313 17.4747 91.0672 17.1386 91.7487 17.3566C91.7487 17.3203 91.7487 17.2839 91.7123 17.2385C91.6487 17.1295 91.5033 17.066 91.3125 17.066H91.3216Z" fill="#193A65"/>
<path d="M31.9671 42.6785L34.3751 37.5106C34.4569 37.329 34.5841 37.22 34.8022 37.22H34.8386C35.0385 37.22 35.1748 37.329 35.2565 37.5106L37.6645 42.6695C37.6918 42.724 37.71 42.7875 37.71 42.8329C37.71 43.0055 37.5646 43.1508 37.3919 43.1508C37.2284 43.1508 37.1193 43.0418 37.0648 42.9056L36.4469 41.5705H33.1939L32.576 42.9238C32.5123 43.0691 32.4033 43.1508 32.2579 43.1508C32.0853 43.1508 31.949 43.0146 31.949 42.8511C31.949 42.8057 31.949 42.7421 31.9944 42.6785H31.9671ZM36.1652 40.971L34.8022 37.992L33.4392 40.971H36.1652Z" fill="#193A65"/>
<path d="M37.3737 43.3325C37.1556 43.3325 36.983 43.2054 36.883 42.9874L36.3106 41.7522H33.2847L32.7122 43.0055C32.6213 43.2144 32.4487 43.3325 32.2306 43.3325C31.9671 43.3325 31.749 43.1236 31.749 42.8602C31.749 42.7694 31.7672 42.6877 31.8126 42.6059L34.2206 37.4471C34.3387 37.1837 34.5386 37.0565 34.8022 37.0565C35.102 37.0565 35.3019 37.2018 35.411 37.4562L37.8099 42.6059C37.8462 42.6967 37.8644 42.7785 37.8644 42.8511C37.8644 43.1236 37.6372 43.3416 37.3646 43.3416L37.3737 43.3325ZM33.0575 41.3979H36.5377L37.2011 42.8421C37.2283 42.9056 37.2828 42.9783 37.3737 42.9783C37.4555 42.9783 37.5191 42.9147 37.5191 42.8421C37.5191 42.8421 37.5191 42.8057 37.4918 42.7422L35.0929 37.5924C35.0202 37.4198 34.9203 37.4017 34.8385 37.4017C34.7022 37.4017 34.6113 37.438 34.5386 37.5924L32.1307 42.7603C32.1307 42.7603 32.1034 42.833 32.1034 42.8511C32.1034 42.9238 32.1579 42.9783 32.2306 42.9783C32.2851 42.9783 32.3487 42.9692 32.3942 42.8602L33.0575 41.3979ZM36.4378 41.1527H33.1666L34.8022 37.5742L36.4378 41.1527ZM33.7118 40.7985H35.8926L34.8022 38.4189L33.7118 40.7985Z" fill="#193A65"/>
<path d="M38.9185 37.3199C38.9185 37.1473 39.0638 36.9929 39.2365 36.9929C39.4091 36.9929 39.5636 37.1382 39.5636 37.3199V42.8239C39.5636 43.0055 39.4273 43.1508 39.2456 43.1508C39.0638 43.1508 38.9185 43.0055 38.9185 42.8239V37.3199Z" fill="#193A65"/>
<path d="M39.2547 43.3325C38.973 43.3325 38.7458 43.1145 38.7458 42.833V37.329C38.7458 37.0565 38.973 36.8295 39.2456 36.8295C39.5182 36.8295 39.7545 37.0565 39.7545 37.329V42.833C39.7545 43.1145 39.5364 43.3325 39.2547 43.3325ZM39.2456 37.1746C39.1638 37.1746 39.1002 37.2382 39.1002 37.3199V42.8239C39.1002 42.9057 39.1638 42.9692 39.2547 42.9692C39.3456 42.9692 39.4001 42.9057 39.4001 42.8239V37.3199C39.4001 37.2382 39.3274 37.1746 39.2456 37.1746Z" fill="#193A65"/>
<path d="M42.1533 42.8874L40.8267 39.2544C40.8085 39.209 40.7812 39.1364 40.7812 39.0819C40.7812 38.9275 40.9176 38.7731 41.1084 38.7731C41.281 38.7731 41.3901 38.8821 41.4355 39.0365L42.535 42.2607L43.6436 39.0274C43.6981 38.8821 43.798 38.7731 43.9616 38.7731H43.9979C44.1797 38.7731 44.2887 38.8821 44.3342 39.0274L45.4336 42.2607L46.5513 39.0183C46.5967 38.8821 46.6876 38.7731 46.8603 38.7731C47.0329 38.7731 47.1783 38.9184 47.1783 39.0728C47.1783 39.1273 47.151 39.1999 47.1329 39.2454L45.7971 42.8874C45.7335 43.0782 45.5972 43.1781 45.4427 43.1781H45.4155C45.2428 43.1781 45.1156 43.0782 45.0611 42.8874L43.9707 39.754L42.8712 42.8874C42.8076 43.0782 42.6804 43.1781 42.5168 43.1781H42.4986C42.3351 43.1781 42.1988 43.0782 42.1352 42.8874H42.1533Z" fill="#193A65"/>
<path d="M45.47 43.3507C45.1974 43.3507 45.0066 43.1962 44.9248 42.9329L43.9979 40.2808L43.062 42.9419C42.9802 43.1962 42.7894 43.3507 42.5441 43.3507C42.2987 43.3507 42.0897 43.1962 41.9989 42.9419L40.6722 39.3089C40.6449 39.2272 40.6177 39.1545 40.6177 39.0728C40.6177 38.8094 40.8448 38.5914 41.1265 38.5914C41.3628 38.5914 41.5445 38.7367 41.6263 38.982L42.5622 41.7158L43.5073 38.9638C43.589 38.7277 43.7708 38.5914 43.9979 38.5914C44.2705 38.5914 44.4614 38.7367 44.534 38.9729L45.47 41.7249L46.4241 38.9638C46.4968 38.7277 46.6694 38.5914 46.9057 38.5914C47.1783 38.5914 47.4055 38.8003 47.4055 39.0637C47.4055 39.1455 47.3782 39.2272 47.36 39.2817L46.0152 42.9419C45.9243 43.1962 45.7335 43.3507 45.4972 43.3507H45.47ZM43.9979 39.2181L45.2519 42.8329C45.3064 43.0055 45.4064 43.0055 45.4427 43.0055C45.579 43.0055 45.6335 42.8965 45.6608 42.8329L46.9966 39.1909C46.9966 39.1909 47.0238 39.1 47.0238 39.0728C47.0238 39.0092 46.9693 38.9456 46.8784 38.9456C46.8421 38.9456 46.7694 38.9456 46.733 39.0728L45.4427 42.8057L44.1797 39.0819C44.1342 38.9638 44.0615 38.9456 44.007 38.9456C43.9343 38.9456 43.8616 38.9456 43.8162 39.0819L42.5441 42.8057L41.281 39.091C41.2356 38.9456 41.1447 38.9456 41.1174 38.9456C41.0266 38.9456 40.963 39.0183 40.963 39.0728C40.963 39.091 40.9811 39.1455 40.9902 39.1727L42.326 42.8239C42.3532 42.9056 42.4078 42.9964 42.5259 42.9964C42.5804 42.9964 42.6804 42.9964 42.7258 42.8329L43.9979 39.2181Z" fill="#193A65"/>
<path d="M47.8961 41.8612V41.843C47.8961 40.9348 48.6594 40.4534 49.768 40.4534C50.3314 40.4534 50.7221 40.526 51.1128 40.635V40.4897C51.1128 39.7177 50.6312 39.3181 49.8043 39.3181C49.3682 39.3181 48.9956 39.418 48.6685 39.5633C48.6231 39.5815 48.5867 39.5905 48.5504 39.5905C48.3959 39.5905 48.2596 39.4634 48.2596 39.3181C48.2596 39.1818 48.3505 39.0819 48.4413 39.0547C48.8775 38.873 49.3136 38.764 49.8679 38.764C50.4858 38.764 50.9583 38.9184 51.2855 39.2363C51.5853 39.527 51.7307 39.9448 51.7307 40.4897V42.8421C51.7307 43.0237 51.5944 43.16 51.4218 43.16C51.2491 43.16 51.1128 43.0237 51.1128 42.8602V42.4697C50.8039 42.8602 50.3041 43.2054 49.5317 43.2054C48.723 43.2054 47.8961 42.7512 47.8961 41.8702V41.8612ZM51.1219 41.5342V41.1164C50.8039 41.0256 50.3677 40.9348 49.8316 40.9348C49.0138 40.9348 48.5504 41.2799 48.5504 41.8248V41.843C48.5504 42.3879 49.0592 42.6968 49.6499 42.6968C50.4586 42.6968 51.1128 42.2154 51.1128 41.5342H51.1219Z" fill="#193A65"/>
<path d="M49.5226 43.378C48.623 43.378 47.7144 42.8603 47.7144 41.8612V41.8431C47.7144 40.8803 48.4958 40.2809 49.7589 40.2809C50.2586 40.2809 50.6312 40.3444 50.9311 40.408C50.9038 39.7995 50.5222 39.4907 49.8043 39.4907C49.4317 39.4907 49.0865 39.5634 48.7412 39.7178C48.6685 39.745 48.6049 39.7541 48.5503 39.7541C48.2959 39.7541 48.0869 39.5452 48.0869 39.3C48.0869 39.082 48.2414 38.9276 48.3777 38.8731C48.8684 38.6642 49.3318 38.5734 49.877 38.5734C50.5403 38.5734 51.0583 38.7459 51.4127 39.1001C51.7489 39.4271 51.9124 39.8903 51.9124 40.4807V42.833C51.9124 43.1146 51.7034 43.3235 51.4217 43.3235C51.1582 43.3235 50.9583 43.1419 50.9311 42.8875C50.6221 43.1509 50.1678 43.3689 49.5226 43.3689V43.378ZM49.7589 40.6351C48.6957 40.6351 48.0597 41.0892 48.0597 41.8521V41.8703C48.0597 42.6332 48.7957 43.0329 49.5135 43.0329C50.2768 43.0329 50.7221 42.6696 50.9583 42.3608L50.9856 42.3244C50.6948 42.6605 50.2132 42.8785 49.6407 42.8785C48.9047 42.8785 48.3595 42.4425 48.3595 41.8431C48.3595 41.171 48.9138 40.7622 49.8134 40.7622C50.2586 40.7622 50.6948 40.8258 51.1491 40.953L51.2764 40.9893V41.5343C51.2764 41.7886 51.1946 42.0247 51.0583 42.2245L51.2673 41.952V42.8512C51.2673 42.9965 51.5399 43.0056 51.5399 42.833V40.4807C51.5399 39.9811 51.4127 39.6088 51.14 39.3545C50.8493 39.0729 50.4222 38.9276 49.8497 38.9276C49.3591 38.9276 48.9411 39.0093 48.4867 39.2091C48.4595 39.2182 48.414 39.2636 48.414 39.309C48.414 39.3635 48.4686 39.409 48.5231 39.409C48.5231 39.409 48.5503 39.409 48.5776 39.3999C48.9592 39.2273 49.3591 39.1456 49.777 39.1456C50.7221 39.1456 51.2582 39.636 51.2582 40.4898V40.8712L51.031 40.8077C50.7039 40.7168 50.3132 40.6351 49.7316 40.6351H49.7589ZM49.8316 41.1074C49.5044 41.1074 48.7321 41.18 48.7321 41.8249C48.7321 42.3063 49.2137 42.5242 49.6589 42.5242C50.3949 42.5242 50.9492 42.0974 50.9492 41.5343V41.2527C50.5767 41.1619 50.2132 41.1074 49.8406 41.1074H49.8316Z" fill="#193A65"/>
<path d="M52.8937 44.3406C52.7938 44.2952 52.6938 44.2135 52.6938 44.0682C52.6938 43.9138 52.8301 43.7957 52.9755 43.7957C53.0391 43.7957 53.0845 43.8138 53.1391 43.832C53.2663 43.8774 53.3935 43.9047 53.6116 43.9047C54.0205 43.9047 54.2567 43.6594 54.493 43.1417L54.5293 43.0782L52.7029 39.2726C52.6756 39.2181 52.6575 39.1545 52.6575 39.1C52.6575 38.9275 52.8029 38.7822 52.9846 38.7822C53.1663 38.7822 53.2572 38.8911 53.3117 39.0274L54.8383 42.4061L56.1922 39.0183C56.2467 38.8821 56.3376 38.7731 56.5012 38.7731C56.6829 38.7731 56.8192 38.9184 56.8192 39.091C56.8192 39.1364 56.801 39.1999 56.7828 39.2454L55.0745 43.2507C54.6929 44.1408 54.2658 44.4678 53.6116 44.4678C53.3208 44.4678 53.1118 44.4224 52.8937 44.3406Z" fill="#193A65"/>
<path d="M53.6207 44.6404C53.2845 44.6404 53.0482 44.5768 52.8483 44.5042H52.8392C52.6393 44.4224 52.5303 44.2589 52.5303 44.0591C52.5303 43.8139 52.7302 43.605 52.9846 43.605C53.0755 43.605 53.1391 43.6323 53.2027 43.6504C53.3118 43.6868 53.4208 43.714 53.6207 43.714C53.8842 43.714 54.0932 43.605 54.3386 43.0601L52.5485 39.3272C52.503 39.2363 52.4849 39.1546 52.4849 39.0729C52.4849 38.8004 52.7029 38.5824 52.9937 38.5824C53.1482 38.5824 53.3663 38.646 53.4844 38.9366L54.8383 41.9338L56.0378 38.9366C56.1196 38.7096 56.2922 38.5824 56.5103 38.5824C56.7829 38.5824 57.0101 38.8004 57.0101 39.0729C57.0101 39.1546 56.9828 39.2273 56.9646 39.2908L55.2472 43.3144C54.8474 44.2499 54.3749 44.6313 53.6207 44.6313V44.6404ZM52.9574 44.1772C53.1573 44.2499 53.3481 44.2862 53.6116 44.2862C54.1205 44.2862 54.5203 44.1045 54.911 43.1781L56.6193 39.1728C56.6375 39.1273 56.6375 39.1001 56.6375 39.0819C56.6375 39.0002 56.5739 38.9457 56.4921 38.9457C56.4558 38.9457 56.3922 38.9457 56.3467 39.0729L54.8383 42.8421L53.1482 39.091C53.0937 38.9548 53.0392 38.9457 52.9755 38.9457C52.8847 38.9457 52.8211 39.0093 52.8211 39.0819C52.8211 39.1092 52.8211 39.1455 52.8483 39.1818L54.7111 43.0601L54.6384 43.2054C54.4385 43.6504 54.1659 44.0682 53.6025 44.0682C53.3481 44.0682 53.2027 44.0228 53.0755 43.9865C52.9755 43.9501 52.8665 43.9683 52.8665 44.0591C52.8665 44.0773 52.8665 44.1318 52.9574 44.1681V44.1772Z" fill="#193A65"/>
<path d="M57.5735 42.6513C57.5098 42.6059 57.4553 42.5242 57.4553 42.4152C57.4553 42.2699 57.5825 42.1427 57.7461 42.1427C57.8097 42.1427 57.8642 42.1609 57.9097 42.1881C58.3549 42.4879 58.8274 42.6423 59.2999 42.6423C59.827 42.6423 60.2086 42.3789 60.2086 41.9611V41.9429C60.2086 41.5069 59.6907 41.3435 59.1182 41.1891C58.4367 40.9983 57.6734 40.7622 57.6734 39.972V39.9538C57.6734 39.2182 58.3004 38.7186 59.1636 38.7186C59.627 38.7186 60.1359 38.8639 60.563 39.0819C60.6448 39.1273 60.7265 39.2272 60.7265 39.3453C60.7265 39.4906 60.5993 39.6178 60.4358 39.6178C60.3722 39.6178 60.3267 39.5996 60.2904 39.5815C59.9178 39.3726 59.518 39.2454 59.1454 39.2454C58.6275 39.2454 58.3004 39.5088 58.3004 39.8721V39.8903C58.3004 40.299 58.8456 40.4534 59.4271 40.6259C60.1086 40.8258 60.8356 41.0801 60.8356 41.8612V41.8793C60.8356 42.6968 60.1541 43.169 59.2818 43.169C58.7093 43.169 58.0732 42.9601 57.6007 42.6241L57.5735 42.6513Z" fill="#193A65"/>
<path d="M59.2545 43.3689C58.6457 43.3689 57.9823 43.1509 57.4644 42.7967C57.3735 42.7331 57.2736 42.5969 57.2736 42.4152C57.2736 42.17 57.4826 41.9611 57.737 41.9611C57.8369 41.9611 57.9369 41.9884 58.0096 42.0519C58.4276 42.3244 58.8546 42.4697 59.2908 42.4697C59.6543 42.4697 60.0178 42.3153 60.0178 41.9611C60.0178 41.6705 59.6815 41.5251 59.0546 41.3617C58.4276 41.1891 57.4735 40.9257 57.4735 39.9811C57.4735 39.1365 58.155 38.5552 59.1363 38.5552C59.6179 38.5552 60.154 38.7005 60.6175 38.9457C60.781 39.0365 60.8719 39.2 60.8719 39.3635C60.8719 39.6087 60.6629 39.8176 60.4085 39.8176C60.3085 39.8176 60.2358 39.7904 60.1904 39.7631C59.8178 39.5542 59.4544 39.4453 59.1273 39.4453C58.7274 39.4453 58.4548 39.6269 58.4548 39.8903C58.4548 40.1809 58.9364 40.3263 59.4362 40.4716C60.0268 40.6441 60.9809 40.9257 60.9809 41.8794C60.9809 42.7604 60.2722 43.3598 59.2454 43.3598L59.2545 43.3689ZM57.6734 42.5061C58.1186 42.8239 58.7274 43.0147 59.2545 43.0147C59.9451 43.0147 60.6356 42.6695 60.6356 41.8975C60.6356 41.2436 60.0541 41.0256 59.3544 40.8167C58.7274 40.626 58.1005 40.4443 58.1005 39.9085C58.1005 39.418 58.5184 39.091 59.1273 39.091C59.518 39.091 59.936 39.2091 60.354 39.4453C60.354 39.4453 60.3812 39.4543 60.4085 39.4543C60.4721 39.4543 60.5175 39.4089 60.5175 39.3544C60.5175 39.2909 60.4721 39.2545 60.4448 39.2364C60.0359 39.0184 59.5543 38.8912 59.1363 38.8912C58.3458 38.8912 57.8188 39.3181 57.8188 39.9448C57.8188 40.5715 58.3912 40.7985 59.1363 41.0074C59.6543 41.1528 60.354 41.3435 60.354 41.9339C60.354 42.4516 59.9087 42.8058 59.2726 42.8058C58.7729 42.8058 58.2731 42.6423 57.7824 42.3153C57.7279 42.2699 57.6098 42.3153 57.6098 42.3971C57.6098 42.4425 57.637 42.4788 57.6552 42.4879L57.6734 42.5061Z" fill="#193A65"/>
<path d="M64.3249 37.7287C64.3067 37.6833 64.2886 37.6288 64.2886 37.5834C64.2886 37.4108 64.4521 37.2473 64.6339 37.2473C64.8065 37.2473 64.9337 37.3745 64.9792 37.5198L66.6148 42.1428L68.1686 37.5016C68.2231 37.3563 68.3231 37.2473 68.4957 37.2473H68.5412C68.7138 37.2473 68.8228 37.3563 68.8683 37.5016L70.4221 42.1428L72.0668 37.5016C72.1213 37.3563 72.2304 37.2473 72.3848 37.2473C72.5666 37.2473 72.721 37.4017 72.721 37.5743C72.721 37.6197 72.6938 37.6833 72.6756 37.7287L70.7765 42.9057C70.7129 43.0692 70.5948 43.1873 70.4312 43.1873H70.3767C70.204 43.1873 70.0859 43.0692 70.0314 42.9057L68.4866 38.428L66.951 42.9057C66.8874 43.0692 66.7693 43.1873 66.6057 43.1873H66.5512C66.3785 43.1873 66.2604 43.0783 66.2059 42.9057L64.3067 37.7287H64.3249Z" fill="#193A65"/>
<path d="M70.4402 43.3598H70.3857C70.1495 43.3598 69.9587 43.2145 69.8769 42.9602L68.5048 38.9729L67.1418 42.9602C67.0509 43.2145 66.8601 43.3598 66.6238 43.3598H66.5693C66.3331 43.3598 66.1422 43.2145 66.0514 42.9602L64.1522 37.7922C64.1341 37.7377 64.1068 37.6651 64.1068 37.5833C64.1068 37.3109 64.3431 37.0747 64.6338 37.0747C64.861 37.0747 65.07 37.2291 65.1518 37.4653L66.6147 41.6069L68.005 37.4562C68.0868 37.22 68.2685 37.0747 68.5048 37.0747C68.7774 37.0747 68.9682 37.22 69.0409 37.4562L70.4312 41.6159L71.9032 37.4562C71.985 37.22 72.1667 37.0838 72.3939 37.0838C72.6665 37.0838 72.9118 37.3199 72.9118 37.5833C72.9118 37.656 72.8846 37.7196 72.8664 37.7741L70.9582 42.9783C70.8673 43.2235 70.6765 43.3779 70.4493 43.3779L70.4402 43.3598ZM68.4957 37.883L70.204 42.8421C70.2313 42.9147 70.2858 43.0056 70.3857 43.0056H70.4402C70.5402 43.0056 70.5947 42.9147 70.622 42.8421L72.5211 37.6651C72.5393 37.6106 72.5484 37.5833 72.5484 37.5652C72.5484 37.5016 72.4666 37.4198 72.3848 37.4198C72.3121 37.4198 72.2576 37.4653 72.2303 37.5561L70.413 42.6786L68.7047 37.5561C68.6593 37.4198 68.5684 37.4198 68.5411 37.4198C68.4412 37.4198 68.3776 37.438 68.3321 37.5561L66.6238 42.6786L64.8156 37.5742C64.7883 37.5016 64.7247 37.4198 64.6338 37.4198C64.543 37.4198 64.4612 37.5016 64.4612 37.5742C64.4612 37.5924 64.4703 37.6287 64.4885 37.6651L66.3876 42.833C66.4421 42.9965 66.5421 42.9965 66.5693 42.9965H66.6238C66.7238 42.9965 66.7783 42.9057 66.8056 42.833L68.5048 37.874L68.4957 37.883Z" fill="#193A65"/>
<path d="M73.766 37.4653C73.766 37.2564 73.9386 37.1201 74.1476 37.1201C74.3566 37.1201 74.5384 37.2564 74.5384 37.4653V37.5742C74.5384 37.7741 74.3657 37.9194 74.1476 37.9194C73.9296 37.9194 73.766 37.7741 73.766 37.5742V37.4653ZM73.8205 39.091C73.8205 38.9185 73.9659 38.764 74.1385 38.764C74.3112 38.764 74.4657 38.9094 74.4657 39.091V42.8239C74.4657 43.0056 74.3294 43.1509 74.1476 43.1509C73.9659 43.1509 73.8205 43.0056 73.8205 42.8239V39.091Z" fill="#193A65"/>
<path d="M74.1568 43.3325C73.8751 43.3325 73.6479 43.1145 73.6479 42.833V39.1001C73.6479 38.8276 73.8751 38.6005 74.1477 38.6005C74.4203 38.6005 74.6565 38.8185 74.6565 39.1001V42.833C74.6565 43.1145 74.4385 43.3325 74.1568 43.3325ZM74.1477 38.9457C74.0659 38.9457 74.0023 39.0092 74.0023 39.091V42.8239C74.0023 42.9056 74.0659 42.9692 74.1568 42.9692C74.2476 42.9692 74.3021 42.9056 74.3021 42.8239V39.091C74.3021 39.0092 74.2385 38.9457 74.1477 38.9457ZM74.1477 38.0919C73.8387 38.0919 73.5934 37.8648 73.5934 37.5742V37.4652C73.5934 37.1746 73.8296 36.9475 74.1477 36.9475C74.4657 36.9475 74.7111 37.1655 74.7111 37.4652V37.5742C74.7111 37.8648 74.4657 38.0919 74.1477 38.0919ZM74.1477 37.3017C74.0568 37.3017 73.9387 37.3471 73.9387 37.4652V37.5742C73.9387 37.7922 74.3567 37.8013 74.3567 37.5742V37.4652C74.3567 37.3108 74.1749 37.3017 74.1477 37.3017Z" fill="#193A65"/>
<path d="M76.2194 41.9702V39.3727H75.865C75.7105 39.3727 75.5742 39.2364 75.5742 39.0911C75.5742 38.9367 75.7105 38.8095 75.865 38.8095H76.2194V37.7923C76.2194 37.6197 76.3557 37.4653 76.5374 37.4653C76.7192 37.4653 76.8645 37.6107 76.8645 37.7923V38.8095H78.0004C78.1639 38.8095 78.3002 38.9458 78.3002 39.0911C78.3002 39.2455 78.1639 39.3727 78.0004 39.3727H76.8645V41.8885C76.8645 42.4153 77.1644 42.606 77.6006 42.606C77.8277 42.606 77.9459 42.5515 78.0004 42.5515C78.1548 42.5515 78.2821 42.6787 78.2821 42.824C78.2821 42.9421 78.2094 43.0329 78.0912 43.0692C77.9004 43.1419 77.7005 43.1873 77.4461 43.1873C76.7464 43.1873 76.2103 42.8422 76.2103 41.9702H76.2194Z" fill="#193A65"/>
<path d="M77.4552 43.3598C76.5556 43.3598 76.0468 42.8512 76.0468 41.9702V39.5543H75.865C75.6106 39.5543 75.4016 39.3454 75.4016 39.0911C75.4016 38.8367 75.6106 38.6278 75.865 38.6278H76.0468V37.7923C76.0468 37.5107 76.2648 37.2927 76.5465 37.2927C76.8282 37.2927 77.0554 37.5198 77.0554 37.7923V38.6278H78.0095C78.2639 38.6278 78.482 38.8367 78.482 39.0911C78.482 39.3454 78.273 39.5543 78.0095 39.5543H77.0554V41.8885C77.0554 42.2699 77.219 42.4243 77.6188 42.4243C77.7551 42.4243 77.8369 42.4062 77.9005 42.388C78.2094 42.3063 78.4729 42.5333 78.4729 42.8149C78.4729 42.9965 78.3548 43.16 78.1731 43.2327C77.955 43.3235 77.7278 43.3598 77.4643 43.3598H77.4552ZM75.865 38.9911C75.8105 38.9911 75.756 39.0366 75.756 39.1001C75.756 39.1546 75.8105 39.2091 75.865 39.2091H76.4011V41.9793C76.4011 42.6696 76.7555 43.0147 77.4643 43.0147C77.6824 43.0147 77.8641 42.9784 78.0458 42.9148C78.0731 42.9057 78.1185 42.8785 78.1185 42.833C78.1185 42.7785 78.0731 42.7331 78.0186 42.7331C77.9186 42.7604 77.8005 42.7876 77.6188 42.7876C77.0281 42.7876 76.7101 42.4697 76.7101 41.8975V39.2091H78.0186C78.0822 39.2091 78.1367 39.1637 78.1367 39.1001C78.1367 39.0547 78.0822 38.9911 78.0186 38.9911H76.7101V37.8013C76.7101 37.7196 76.6374 37.656 76.5556 37.656C76.4648 37.656 76.4102 37.7287 76.4102 37.8013V38.9911H75.8741H75.865Z" fill="#193A65"/>
<path d="M79.418 37.3199C79.418 37.1473 79.5634 36.9929 79.736 36.9929C79.9087 36.9929 80.0631 37.1382 80.0631 37.3199V39.5542C80.3539 39.091 80.8082 38.7186 81.5624 38.7186C82.6165 38.7186 83.2435 39.4179 83.2435 40.4443V42.833C83.2435 43.0146 83.0981 43.1599 82.9254 43.1599C82.7528 43.1599 82.5983 43.0146 82.5983 42.833V40.6077C82.5983 39.8085 82.1622 39.309 81.3898 39.309C80.6174 39.309 80.0813 39.8539 80.0813 40.6532V42.833C80.0813 43.0146 79.945 43.1599 79.7633 43.1599C79.5815 43.1599 79.4361 43.0146 79.4361 42.833V37.329L79.418 37.3199Z" fill="#193A65"/>
<path d="M82.9164 43.3325C82.6347 43.3325 82.4075 43.1145 82.4075 42.8329V40.6077C82.4075 39.8993 82.0259 39.4906 81.3716 39.4906C80.7174 39.4906 80.2358 39.972 80.2358 40.6622V42.842C80.2358 43.1236 80.0177 43.3416 79.736 43.3416C79.4543 43.3416 79.2272 43.1236 79.2272 42.842V37.338C79.2272 37.0656 79.4543 36.8385 79.7269 36.8385C79.9995 36.8385 80.2358 37.0656 80.2358 37.338V39.0728C80.5811 38.7367 81.0263 38.5642 81.5625 38.5642C82.6892 38.5642 83.4162 39.3089 83.4162 40.4624V42.8511C83.4162 43.1327 83.1981 43.3506 82.9164 43.3506V43.3325ZM81.3807 39.1273C82.2349 39.1273 82.771 39.6904 82.771 40.5986V42.8239C82.771 42.9056 82.8346 42.9692 82.9255 42.9692C83.0072 42.9692 83.0709 42.9056 83.0709 42.8239V40.4352C83.0709 39.4815 82.4984 38.8911 81.5715 38.8911C80.9809 38.8911 80.5357 39.1364 80.2267 39.645L80.1813 39.7086C80.4448 39.3453 80.8719 39.1182 81.3807 39.1182V39.1273ZM79.736 37.1746C79.6542 37.1746 79.5906 37.2381 79.5906 37.3199V42.8239C79.5906 42.9056 79.6542 42.9692 79.7451 42.9692C79.836 42.9692 79.8905 42.9056 79.8905 42.8239V40.6441C79.8905 40.3625 79.9541 40.0991 80.0722 39.8811L79.8905 40.1718V37.3199C79.8905 37.2381 79.8178 37.1746 79.736 37.1746Z" fill="#193A65"/>
<path d="M89.1043 40.8257L86.9053 37.8012C86.8599 37.7376 86.8326 37.6559 86.8326 37.5742C86.8326 37.4016 86.9962 37.2472 87.1779 37.2472C87.3233 37.2472 87.4142 37.3289 87.496 37.447L89.4496 40.2172L91.4214 37.447C91.5032 37.3289 91.5941 37.2472 91.7304 37.2472C91.9212 37.2472 92.0575 37.3925 92.0575 37.5742C92.0575 37.6559 92.003 37.7467 91.9666 37.8194L89.7767 40.8166V42.8329C89.7767 43.0146 89.6223 43.169 89.4405 43.169C89.2588 43.169 89.1043 43.0237 89.1043 42.8329V40.8348V40.8257Z" fill="#193A65"/>
<path d="M89.4406 43.3325C89.1589 43.3325 88.9226 43.1054 88.9226 42.8239V40.8893L86.7509 37.9102C86.6782 37.7922 86.6418 37.6832 86.6418 37.5833C86.6418 37.3108 86.8781 37.0837 87.1689 37.0837C87.4051 37.0837 87.5505 37.2381 87.6323 37.3562L89.4496 39.9266L91.2761 37.3562C91.376 37.22 91.5032 37.0837 91.7304 37.0837C92.0121 37.0837 92.2393 37.3108 92.2393 37.5833C92.2393 37.7104 92.1666 37.8376 92.1211 37.9193L89.9585 40.8802V42.833C89.9585 43.1145 89.7313 43.3416 89.4406 43.3416V43.3325ZM87.1689 37.4198C87.078 37.4198 86.9962 37.4925 86.9962 37.5651C86.9962 37.6014 87.0144 37.6469 87.0417 37.6923L89.2679 40.7531V42.8057C89.2679 42.8965 89.3406 42.9601 89.4315 42.9601C89.5223 42.9601 89.595 42.8874 89.595 42.8057V40.7349L91.8213 37.6923C91.8758 37.6105 91.8758 37.5651 91.8758 37.556C91.8758 37.4743 91.8031 37.4107 91.7213 37.4107C91.6668 37.4107 91.6305 37.4289 91.5487 37.5379L89.4315 40.5078L87.3324 37.5379C87.2597 37.438 87.2052 37.4107 87.1507 37.4107L87.1689 37.4198Z" fill="#193A65"/>
<path d="M92.0667 40.9802V40.962C92.0667 39.7449 93.0298 38.7186 94.3565 38.7186C95.6832 38.7186 96.6373 39.7359 96.6373 40.9438V40.962C96.6373 42.1791 95.665 43.2054 94.3383 43.2054C93.0117 43.2054 92.0667 42.1881 92.0667 40.9802ZM95.9649 40.9802V40.962C95.9649 40.0356 95.2652 39.2817 94.3383 39.2817C93.4115 39.2817 92.7391 40.0356 92.7391 40.9438V40.962C92.7391 41.8884 93.4297 42.6332 94.3565 42.6332C95.2833 42.6332 95.9649 41.8884 95.9649 40.9802Z" fill="#193A65"/>
<path d="M94.3384 43.387C92.9663 43.387 91.894 42.3335 91.894 40.9802V40.962C91.894 39.6087 92.9754 38.537 94.3565 38.537C95.7377 38.537 96.81 39.5906 96.81 40.9438C96.81 42.2971 95.7286 43.3779 94.3384 43.3779V43.387ZM94.3565 38.8912C93.1753 38.8912 92.2484 39.7995 92.2484 40.962V40.9802C92.2484 42.1336 93.1662 43.0328 94.3384 43.0328C95.5106 43.0328 96.4556 42.1246 96.4556 40.962C96.4556 39.7995 95.5287 38.8912 94.3565 38.8912ZM94.3565 42.8148C93.3479 42.8148 92.5665 42.0065 92.5665 40.9711C92.5665 39.9357 93.3297 39.1183 94.3475 39.1183C95.3652 39.1183 96.1466 39.9357 96.1466 40.9711V40.9893C96.1466 42.0337 95.3833 42.8239 94.3656 42.8239L94.3565 42.8148ZM94.3384 39.4634C93.5297 39.4634 92.9118 40.0992 92.9118 40.9529C92.9118 41.8067 93.5478 42.4606 94.3565 42.4606C95.1653 42.4606 95.7922 41.8248 95.7922 40.9802V40.962C95.7922 40.1173 95.1562 39.4543 94.3384 39.4543V39.4634Z" fill="#193A65"/>
<path d="M101.562 42.824C101.562 42.9965 101.426 43.1509 101.244 43.1509C101.063 43.1509 100.926 43.0056 100.926 42.824V42.3608C100.626 42.824 100.181 43.1963 99.4269 43.1963C98.3728 43.1963 97.7458 42.497 97.7458 41.4707V39.082C97.7458 38.9003 97.8821 38.755 98.0639 38.755C98.2456 38.755 98.391 38.9003 98.391 39.082V41.3072C98.391 42.1064 98.8272 42.606 99.5995 42.606C100.372 42.606 100.908 42.061 100.908 41.2618V39.082C100.908 38.9003 101.044 38.755 101.226 38.755C101.408 38.755 101.544 38.9003 101.544 39.082V42.8149L101.562 42.824Z" fill="#193A65"/>
<path d="M99.4178 43.3779C98.291 43.3779 97.5641 42.6332 97.5641 41.4797V39.091C97.5641 38.8095 97.7822 38.5915 98.0639 38.5915C98.3455 38.5915 98.5727 38.8185 98.5727 39.091V41.3162C98.5727 42.0247 98.9544 42.4334 99.6086 42.4334C100.263 42.4334 100.744 41.952 100.744 41.2617V39.0819C100.744 38.8004 100.963 38.5824 101.244 38.5824C101.526 38.5824 101.744 38.8004 101.744 39.0819V42.8148C101.744 43.0964 101.526 43.3144 101.244 43.3144C100.963 43.3144 100.763 43.1146 100.744 42.8512C100.39 43.1963 99.9539 43.3689 99.4178 43.3689V43.3779ZM98.0639 38.9457C97.973 38.9457 97.9185 39.0093 97.9185 39.091V41.4797C97.9185 42.4334 98.4909 43.0237 99.4178 43.0237C100.008 43.0237 100.435 42.7785 100.772 42.2699L100.826 42.1881C100.563 42.5696 100.127 42.7967 99.6086 42.7967C98.7544 42.7967 98.2183 42.2336 98.2183 41.3253V39.1001C98.2183 39.0184 98.1456 38.9548 98.0639 38.9548V38.9457ZM101.09 41.7613V42.833C101.09 42.9147 101.153 42.9783 101.235 42.9783C101.326 42.9783 101.381 42.9057 101.381 42.833V39.1001C101.381 39.0184 101.317 38.9548 101.235 38.9548C101.153 38.9548 101.09 39.0184 101.09 39.1001V41.2799C101.09 41.5887 101.017 41.8612 100.881 42.0973L101.09 41.7704V41.7613Z" fill="#193A65"/>
<path d="M201.907 23.5509C202.488 23.5509 202.906 23.4237 203.17 23.1603C203.424 22.906 203.561 22.4337 203.561 21.7707V2.92455C203.561 2.69749 203.67 2.5885 203.897 2.5885H205.069C205.296 2.5885 205.405 2.69749 205.405 2.92455V21.807C205.405 23.0877 205.124 24.005 204.569 24.5772C204.006 25.1494 203.125 25.4309 201.916 25.4309H185.887C184.479 25.4309 183.47 25.1494 182.861 24.5954C182.252 24.0322 181.953 23.0877 181.953 21.7435V14.3866C181.953 14.1596 182.062 14.0506 182.289 14.0506H183.461C183.688 14.0506 183.797 14.1596 183.797 14.3866V21.7798C183.797 22.4337 183.924 22.8879 184.188 23.1603C184.442 23.4328 184.851 23.56 185.415 23.56H201.916L201.907 23.5509ZM194.047 11.1896H194.783C195.41 11.1896 195.855 11.344 196.11 11.6437C196.364 11.9435 196.5 12.3431 196.5 12.8335V14.3776C196.5 15.1132 196.364 15.6128 196.082 15.8762C195.801 16.1305 195.301 16.2667 194.583 16.2667H190.985C190.758 16.2667 190.648 16.1577 190.648 15.9307V15.3221C190.648 15.0951 190.758 14.9861 190.985 14.9861H194.583C194.828 14.9861 194.992 14.9316 195.074 14.8226C195.156 14.7136 195.192 14.532 195.192 14.2867V13.4148C195.192 13.0152 195.119 12.7518 194.974 12.6428C194.828 12.5338 194.601 12.4793 194.283 12.4793H192.402C192.175 12.4793 192.066 12.3703 192.066 12.1433V11.7073C192.066 11.5529 192.121 11.4167 192.23 11.3077L194.883 8.14698C195.065 7.91992 195.237 7.90175 195.419 8.0834L195.919 8.55569C196.073 8.71009 196.064 8.88266 195.882 9.05523L194.038 11.2078L194.047 11.1896ZM212.793 32.0248C212.566 32.0248 212.457 31.9158 212.457 31.6888V30.4808C212.457 30.2537 212.566 30.1448 212.793 30.1448H216.891C217.99 30.1448 218.799 29.9449 219.326 29.5362C219.853 29.1366 220.117 28.3283 220.117 27.1203V25.44H216.318C215.373 25.44 214.528 25.331 213.765 25.104C213.002 24.8769 212.348 24.5136 211.802 23.9959C211.257 23.4782 210.83 22.7879 210.539 21.9342C210.249 21.0714 210.103 19.9996 210.103 18.7281C210.103 17.5201 210.258 16.4484 210.576 15.522C210.885 14.5955 211.321 13.8235 211.866 13.2059C212.411 12.5883 213.047 12.116 213.774 11.7981C214.501 11.4712 215.292 11.3077 216.137 11.3077C218.127 11.3077 219.599 11.898 220.544 13.0879C221.489 14.2777 221.97 16.0851 221.97 18.5283V27.093C221.97 28.8369 221.616 30.0993 220.898 30.8714C220.18 31.6434 219.035 32.0339 217.472 32.0339H212.802L212.793 32.0248ZM216.155 13.1787C214.919 13.1787 213.929 13.651 213.184 14.5865C212.429 15.531 212.057 16.9297 212.057 18.7826C212.057 19.6817 212.139 20.4265 212.311 21.035C212.475 21.6436 212.738 22.1249 213.102 22.4973C213.456 22.8697 213.911 23.1331 214.447 23.3056C214.983 23.4691 215.61 23.56 216.328 23.56H220.126V18.5918C220.126 16.8662 219.826 15.531 219.217 14.5955C218.608 13.651 217.591 13.1878 216.155 13.1878V13.1787ZM238.645 19.6908C238.645 20.808 238.563 21.7435 238.408 22.4791C238.254 23.2148 237.99 23.8052 237.618 24.2411C237.245 24.6771 236.764 24.9859 236.173 25.1676C235.582 25.3492 234.837 25.44 233.938 25.44H226.814C226.586 25.44 226.477 25.331 226.477 25.104V23.896C226.477 23.6689 226.586 23.56 226.814 23.56H233.538C234.21 23.56 234.755 23.5055 235.164 23.3965C235.582 23.2875 235.891 23.0967 236.109 22.8424C236.318 22.5881 236.464 22.2339 236.527 21.798C236.591 21.362 236.627 20.817 236.627 20.1722V16.9116C236.627 15.6582 236.291 14.7227 235.619 14.1051C234.946 13.4875 233.874 13.1787 232.393 13.1787H228.458C228.231 13.1787 228.122 13.0697 228.122 12.8426V11.6347C228.122 11.4076 228.231 11.2986 228.458 11.2986H232.965C233.82 11.2986 234.592 11.4076 235.301 11.6347C236.009 11.8617 236.609 12.1978 237.1 12.661C237.59 13.1242 237.972 13.7055 238.245 14.423C238.517 15.1405 238.645 16.0033 238.645 17.0115V19.6999V19.6908ZM246.823 32.0248C246.595 32.0248 246.486 31.9158 246.486 31.6888V30.4808C246.486 30.2537 246.595 30.1448 246.823 30.1448H250.921C252.02 30.1448 252.829 29.9449 253.356 29.5362C253.883 29.1366 254.146 28.3283 254.146 27.1203V25.44H250.348C249.403 25.44 248.558 25.331 247.795 25.104C247.032 24.8769 246.377 24.5136 245.832 23.9959C245.287 23.4782 244.86 22.7879 244.569 21.9342C244.278 21.0714 244.133 19.9996 244.133 18.7281C244.133 17.5201 244.287 16.4484 244.605 15.522C244.914 14.5955 245.351 13.8235 245.896 13.2059C246.441 12.5883 247.077 12.116 247.804 11.7981C248.531 11.4712 249.321 11.3077 250.167 11.3077C252.157 11.3077 253.629 11.898 254.574 13.0879C255.519 14.2777 256 16.0851 256 18.5283V27.093C256 28.8369 255.646 30.0993 254.928 30.8714C254.21 31.6434 253.065 32.0339 251.502 32.0339H246.832L246.823 32.0248ZM250.185 13.1787C248.949 13.1787 247.958 13.651 247.213 14.5865C246.459 15.531 246.087 16.9297 246.087 18.7826C246.087 19.6817 246.168 20.4265 246.341 21.035C246.505 21.6436 246.768 22.1249 247.132 22.4973C247.486 22.8697 247.94 23.1331 248.476 23.3056C249.013 23.4782 249.639 23.56 250.357 23.56H254.156V18.5918C254.156 16.8662 253.856 15.531 253.247 14.5955C252.638 13.651 251.62 13.1878 250.185 13.1878V13.1787ZM264.106 21.035C264.106 21.8888 264.405 22.5155 264.996 22.9333C265.587 23.3511 266.377 23.5509 267.368 23.5509H267.531C267.976 23.5509 268.313 23.6145 268.54 23.7325C268.767 23.8597 268.876 24.0777 268.876 24.3865C268.876 24.9042 268.767 25.2039 268.558 25.2947C268.349 25.3855 268.004 25.4309 267.531 25.4309C266.795 25.4309 266.141 25.3765 265.578 25.2675C265.014 25.1585 264.524 24.8678 264.096 24.3955V27.084C264.096 28.6734 263.706 29.8904 262.924 30.7442C262.143 31.598 260.907 32.0248 259.226 32.0248H258.654C258.426 32.0248 258.317 31.9158 258.317 31.6888V30.4808C258.317 30.2537 258.426 30.1448 258.654 30.1448H259.426C260.344 30.1448 261.043 29.9086 261.525 29.4363C262.007 28.964 262.252 28.2465 262.252 27.2838V12.2341C262.252 12.007 262.361 11.898 262.588 11.898H263.76C263.987 11.898 264.096 12.007 264.096 12.2341V21.035H264.106ZM267.531 25.44C267.086 25.44 266.75 25.3946 266.523 25.3038C266.295 25.213 266.186 24.9859 266.186 24.6317C266.186 24.1866 266.295 23.896 266.504 23.7598C266.713 23.6235 267.059 23.56 267.531 23.56H269.948C270.512 23.56 270.921 23.4328 271.175 23.1694C271.429 22.906 271.566 22.4428 271.566 21.7798V12.2432C271.566 12.0161 271.675 11.9071 271.893 11.9071H273.083C273.301 11.9071 273.41 12.0161 273.41 12.2432V21.2167C273.41 22.6699 273.11 23.7416 272.52 24.4228C271.929 25.104 270.921 25.4491 269.512 25.4491H267.531V25.44ZM269.612 8.61019C269.385 8.61019 269.276 8.5012 269.276 8.27414V6.25782C269.276 6.03076 269.385 5.92177 269.612 5.92177H271.357C271.584 5.92177 271.693 6.03076 271.693 6.25782V8.27414C271.693 8.5012 271.584 8.61019 271.357 8.61019H269.612ZM273.919 8.61019C273.692 8.61019 273.583 8.5012 273.583 8.27414V6.25782C273.583 6.03076 273.692 5.92177 273.919 5.92177H275.664C275.891 5.92177 276 6.03076 276 6.25782V8.27414C276 8.5012 275.891 8.61019 275.664 8.61019H273.919Z" fill="#233159"/>
<path d="M188.958 42.8783C188.958 43.0691 189.031 43.2144 189.167 43.3143C189.304 43.4142 189.494 43.4687 189.74 43.4687H189.903C190.031 43.4687 190.121 43.505 190.185 43.5777C190.249 43.6504 190.276 43.7684 190.276 43.9319C190.276 44.1136 190.249 44.2407 190.185 44.3134C190.121 44.386 190.031 44.4224 189.894 44.4224C189.649 44.4224 189.44 44.3951 189.258 44.3315C189.076 44.268 188.931 44.1408 188.822 43.9319C188.731 44.1136 188.604 44.2407 188.422 44.3134C188.24 44.386 188.004 44.4224 187.695 44.4224H183.052C182.652 44.4224 182.361 44.3225 182.198 44.1317C182.025 43.941 181.943 43.6322 181.943 43.2235V41.1799C181.943 41.1163 181.971 41.0891 182.034 41.0891H182.907C182.97 41.0891 182.997 41.1254 182.997 41.1799V42.9783C182.997 43.2053 183.061 43.3506 183.179 43.4051C183.297 43.4596 183.515 43.4869 183.815 43.4869H187.395C187.514 43.4869 187.595 43.4687 187.659 43.4415C187.723 43.4142 187.768 43.3597 187.795 43.2871C187.822 43.2144 187.85 43.1236 187.85 43.0146C187.85 42.8965 187.859 42.7603 187.859 42.5968V38.0555C187.859 37.992 187.886 37.9647 187.95 37.9647H188.84C188.904 37.9647 188.931 38.0011 188.931 38.0555V42.9056L188.958 42.8783ZM185.569 40.1808H185.733C185.942 40.1808 186.096 40.2353 186.187 40.3534C186.278 40.4715 186.323 40.6441 186.323 40.8893V41.0709C186.323 41.3252 186.278 41.4978 186.187 41.5886C186.096 41.6795 185.951 41.7249 185.76 41.7249H184.633C184.569 41.7249 184.542 41.6976 184.542 41.634V41.3525C184.542 41.2889 184.569 41.2617 184.633 41.2617H185.596C185.678 41.2617 185.733 41.2435 185.751 41.2163C185.769 41.189 185.787 41.1345 185.787 41.0618C185.787 40.8893 185.769 40.7803 185.723 40.744C185.678 40.6986 185.578 40.6804 185.424 40.6804H184.978C184.887 40.6804 184.842 40.635 184.842 40.5441V40.3262C184.842 40.3262 184.842 40.2626 184.869 40.2444C184.887 40.2172 184.897 40.199 184.915 40.1899L185.651 39.3271C185.705 39.2635 185.751 39.2544 185.805 39.3089L186.041 39.5178C186.041 39.5178 186.087 39.5723 186.078 39.5905C186.078 39.6087 186.06 39.6359 186.041 39.6631L185.578 40.2081L185.569 40.1808Z" fill="#233159"/>
<path d="M192.566 40.2808C193.293 40.2808 193.829 40.417 194.165 40.6895C194.501 40.962 194.674 41.3253 194.674 41.7612C194.674 41.952 194.647 42.1336 194.583 42.2971C194.519 42.4697 194.447 42.6241 194.347 42.7603C194.256 42.9056 194.147 43.0328 194.02 43.1418C193.902 43.2598 193.783 43.3507 193.665 43.4233C193.72 43.4324 193.774 43.4415 193.829 43.4415H195.219C195.365 43.4415 195.464 43.4778 195.519 43.5596C195.574 43.6322 195.592 43.7594 195.592 43.941C195.592 44.1227 195.564 44.2408 195.501 44.2952C195.437 44.3588 195.346 44.3861 195.219 44.3861H193.802C193.574 44.3861 193.356 44.3679 193.147 44.3225C192.938 44.2771 192.748 44.2044 192.566 44.0863C192.357 44.2044 192.13 44.2771 191.902 44.3225C191.666 44.3679 191.457 44.3861 191.275 44.3861H189.903C189.785 44.3861 189.694 44.3588 189.631 44.2952C189.567 44.2317 189.54 44.1136 189.54 43.941C189.54 43.7685 189.558 43.6504 189.604 43.5686C189.649 43.4869 189.749 43.4415 189.912 43.4415H191.03C191.13 43.4415 191.248 43.4415 191.375 43.4233C191.503 43.4142 191.648 43.387 191.821 43.3507C191.766 43.1418 191.703 42.9601 191.612 42.8057C191.53 42.6513 191.43 42.5151 191.321 42.397C191.212 42.2789 191.094 42.179 190.976 42.0791C190.848 41.9883 190.73 41.8975 190.603 41.8066C190.53 41.7521 190.494 41.7067 190.485 41.6704C190.476 41.625 190.467 41.5796 190.467 41.5342V40.9347C190.467 40.8621 190.53 40.7894 190.648 40.7077C190.767 40.6259 190.93 40.5533 191.121 40.4806C191.321 40.417 191.539 40.3625 191.793 40.3171C192.048 40.2717 192.311 40.2535 192.575 40.2535L192.566 40.2808ZM192.711 43.1599C192.811 43.0964 192.92 43.0237 193.02 42.9329C193.129 42.842 193.22 42.7512 193.293 42.6422C193.375 42.5332 193.438 42.4243 193.484 42.3062C193.538 42.1881 193.556 42.061 193.556 41.9338C193.556 41.6704 193.465 41.4888 193.275 41.3889C193.084 41.2889 192.847 41.2344 192.557 41.2344C192.302 41.2344 192.084 41.2617 191.893 41.3071C191.703 41.3616 191.575 41.3979 191.512 41.4433C191.803 41.625 192.057 41.8702 192.257 42.1609C192.466 42.4606 192.611 42.7876 192.702 43.1599H192.711Z" fill="#233159"/>
<path d="M198.145 44.4769C197.827 44.4769 197.545 44.4315 197.291 44.3497C197.036 44.268 196.827 44.1227 196.655 43.9228C196.591 44.0227 196.518 44.1045 196.428 44.1681C196.337 44.2316 196.246 44.2771 196.155 44.3134C196.064 44.3497 195.964 44.3679 195.855 44.386C195.755 44.3951 195.655 44.4042 195.573 44.4042H195.237C195.11 44.4042 195.019 44.3679 194.955 44.2952C194.892 44.2226 194.865 44.1045 194.865 43.9319C194.865 43.7503 194.892 43.6231 194.955 43.5595C195.019 43.496 195.11 43.4687 195.246 43.4687H195.619C195.692 43.4687 195.755 43.4506 195.828 43.4233C195.901 43.3961 195.964 43.3506 196.019 43.278C196.073 43.2144 196.128 43.1236 196.164 43.0146C196.2 42.9056 196.219 42.7694 196.219 42.5968C196.219 42.5423 196.209 42.4969 196.209 42.4515V42.3062C196.209 41.9338 196.264 41.625 196.364 41.3707C196.464 41.1164 196.6 40.9075 196.773 40.744C196.945 40.5805 197.154 40.4624 197.391 40.3898C197.627 40.3171 197.881 40.2808 198.163 40.2808C198.445 40.2808 198.699 40.3171 198.945 40.3988C199.19 40.4715 199.39 40.5987 199.572 40.7621C199.744 40.9256 199.88 41.1436 199.98 41.4161C200.08 41.6885 200.126 42.0155 200.126 42.4061C200.126 42.7966 200.08 43.0963 199.98 43.3597C199.89 43.6231 199.753 43.832 199.581 43.9955C199.408 44.159 199.199 44.2771 198.963 44.3588C198.717 44.4315 198.454 44.4769 198.163 44.4769H198.145ZM198.145 41.2344C197.836 41.2344 197.618 41.3343 197.473 41.5341C197.327 41.734 197.254 42.0155 197.254 42.3879C197.254 42.7966 197.327 43.0873 197.473 43.2598C197.618 43.4415 197.845 43.5232 198.145 43.5232C198.445 43.5232 198.681 43.4324 198.836 43.2507C198.981 43.0691 199.054 42.7784 199.054 42.3788C199.054 41.6068 198.754 41.2253 198.145 41.2253V41.2344Z" fill="#233159"/>
<path d="M203.47 38.0283C203.47 37.9647 203.497 37.9375 203.561 37.9375H204.451C204.515 37.9375 204.542 37.9738 204.542 38.0283V42.9601C204.542 43.1508 204.578 43.278 204.651 43.3597C204.724 43.4324 204.842 43.4687 204.996 43.4687H205.333C205.46 43.4687 205.551 43.5051 205.614 43.5777C205.678 43.6504 205.705 43.7775 205.705 43.9501C205.705 44.1499 205.678 44.268 205.614 44.3225C205.551 44.377 205.46 44.4042 205.323 44.4042H204.569C204.169 44.4042 203.879 44.3043 203.715 44.1136C203.542 43.9229 203.461 43.6141 203.461 43.2053V38.0283H203.47Z" fill="#233159"/>
<path d="M206.296 42.3153C206.296 41.9429 206.35 41.6341 206.45 41.3798C206.55 41.1255 206.686 40.9166 206.859 40.7531C207.032 40.5896 207.241 40.4716 207.477 40.3989C207.713 40.3262 207.968 40.2899 208.249 40.2899C208.531 40.2899 208.786 40.3262 209.031 40.408C209.276 40.4807 209.476 40.6078 209.658 40.7713C209.83 40.9348 209.967 41.1528 210.067 41.4252C210.167 41.6977 210.212 42.0247 210.212 42.4152V42.5787C210.212 42.6332 210.212 42.6877 210.203 42.7331C210.203 42.9965 210.276 43.1872 210.385 43.2962C210.503 43.4052 210.639 43.4597 210.794 43.4597H211.066C211.194 43.4597 211.284 43.496 211.348 43.5687C211.412 43.6414 211.439 43.7594 211.439 43.9229C211.439 44.1046 211.412 44.2317 211.348 44.3044C211.284 44.377 211.194 44.4134 211.057 44.4134C210.948 44.4134 210.839 44.4134 210.721 44.4043C210.603 44.4043 210.485 44.377 210.367 44.3407C210.248 44.3044 210.139 44.259 210.03 44.1863C209.921 44.1227 209.83 44.0228 209.749 43.9047C209.576 44.1046 209.367 44.2499 209.104 44.3407C208.849 44.4315 208.558 44.4769 208.231 44.4769C207.904 44.4769 207.632 44.4315 207.377 44.3498C207.123 44.268 206.914 44.1227 206.741 43.9229C206.677 44.0228 206.605 44.1046 206.514 44.1681C206.423 44.2317 206.332 44.2771 206.241 44.3135C206.15 44.3498 206.05 44.368 205.941 44.3861C205.841 44.3952 205.741 44.4043 205.66 44.4043H205.323C205.196 44.4043 205.105 44.368 205.042 44.2953C204.978 44.2226 204.951 44.1046 204.951 43.932C204.951 43.7503 204.978 43.6232 205.042 43.5596C205.105 43.496 205.196 43.4688 205.333 43.4688H205.705C205.86 43.4688 205.996 43.4052 206.114 43.2871C206.232 43.16 206.296 42.9329 206.305 42.6059C206.305 42.5515 206.296 42.506 206.296 42.4606V42.3153ZM208.249 41.2345C207.94 41.2345 207.722 41.3344 207.577 41.5342C207.432 41.734 207.359 42.0156 207.359 42.388C207.359 42.7967 207.432 43.0873 207.577 43.2599C207.722 43.4415 207.95 43.5233 208.249 43.5233C208.549 43.5233 208.786 43.4325 208.94 43.2508C209.085 43.0692 209.158 42.7785 209.158 42.3789C209.158 41.6069 208.858 41.2254 208.249 41.2254V41.2345Z" fill="#233159"/>
<path d="M211.112 44.4042C210.984 44.4042 210.894 44.3861 210.83 44.3407C210.766 44.2953 210.739 44.2044 210.739 44.0773C210.739 43.9229 210.766 43.7776 210.83 43.6504C210.894 43.5232 210.984 43.4688 211.121 43.4688H211.584C211.739 43.4688 211.857 43.4324 211.929 43.3598C212.002 43.2871 212.039 43.1509 212.039 42.9601V40.5533C212.039 40.4897 212.066 40.4624 212.129 40.4624H213.02C213.084 40.4624 213.111 40.4988 213.111 40.5533V43.2144C213.111 43.6232 213.029 43.932 212.856 44.1227C212.684 44.3134 212.402 44.4133 212.002 44.4133H211.112V44.4042ZM211.802 39.0456C211.757 38.982 211.721 38.9093 211.693 38.8276C211.666 38.7459 211.648 38.6459 211.648 38.546C211.648 38.4461 211.666 38.3371 211.702 38.2282C211.739 38.1192 211.802 38.0193 211.884 37.9284C211.966 37.8376 212.075 37.7649 212.211 37.7014C212.347 37.6469 212.511 37.6196 212.702 37.6196C212.893 37.6196 213.065 37.656 213.229 37.7286C213.383 37.8013 213.502 37.8921 213.583 38.0011C213.601 38.0465 213.601 38.0738 213.574 38.0919L213.293 38.3553C213.293 38.3553 213.247 38.3644 213.22 38.3371C213.156 38.2736 213.084 38.2191 213.002 38.1827C212.92 38.1464 212.82 38.1282 212.72 38.1282C212.566 38.1282 212.447 38.1737 212.375 38.2554C212.293 38.3371 212.257 38.4461 212.257 38.5642C212.257 38.6914 212.284 38.7913 212.347 38.873C212.411 38.9457 212.475 39.0093 212.547 39.0456H213.583C213.583 39.0456 213.638 39.0637 213.638 39.1092V39.4815C213.638 39.4815 213.62 39.5451 213.583 39.5451H211.484C211.484 39.5451 211.43 39.527 211.43 39.4815V39.1092C211.43 39.1092 211.448 39.0456 211.484 39.0456H211.811H211.802Z" fill="#233159"/>
<path d="M215.492 44.3134C215.492 44.377 215.455 44.4042 215.401 44.4042H214.51C214.447 44.4042 214.419 44.377 214.419 44.3134V38.0283C214.419 37.9647 214.447 37.9375 214.51 37.9375H215.401C215.464 37.9375 215.492 37.9738 215.492 38.0283V44.3134Z" fill="#233159"/>
<path d="M220.308 42.7785C220.308 43.0964 220.28 43.3597 220.226 43.5686C220.171 43.7775 220.08 43.941 219.971 44.0682C219.853 44.1953 219.708 44.2862 219.535 44.3316C219.353 44.3861 219.144 44.4042 218.908 44.4042H216.7C216.637 44.4042 216.609 44.377 216.609 44.3134V43.5596C216.609 43.496 216.637 43.4687 216.7 43.4687H218.472C218.645 43.4687 218.781 43.4597 218.881 43.4324C218.981 43.4052 219.063 43.3597 219.117 43.3053C219.172 43.2417 219.208 43.169 219.226 43.0691C219.244 42.9783 219.253 42.8602 219.253 42.7149V42.0791C219.253 41.516 218.926 41.2435 218.281 41.2435H217.136C217.073 41.2435 217.045 41.2163 217.045 41.1527V40.3898C217.045 40.3262 217.073 40.299 217.136 40.299H218.663C219.172 40.299 219.572 40.4352 219.88 40.7167C220.18 40.9892 220.335 41.4252 220.335 42.0065V42.7966L220.308 42.7785Z" fill="#233159"/>
</g>
<defs>
<clipPath id="clip0_4_442">
<rect width="276" height="49" fill="white"/>
</clipPath>
</defs>
</svg>
