<svg width="105" height="85" viewBox="0 0 105 85" fill="none" xmlns="http://www.w3.org/2000/svg">
<path d="M96.9934 8.52545C91.8239 3.02663 84.9573 0 77.6556 0C74.3572 0 71.1546 0.61805 68.1521 1.79962C68.0128 1.85415 67.8649 1.91777 67.7256 1.97231C67.656 1.99957 67.5864 2.03593 67.5168 2.06319C67.2296 2.18135 66.9511 2.3086 66.6726 2.43584C66.603 2.4722 66.5334 2.49947 66.4637 2.53582C66.3245 2.59944 66.1852 2.67216 66.046 2.73578C65.2192 3.15387 64.4099 3.60832 63.6266 4.10821C63.557 4.15366 63.4874 4.1991 63.409 4.24455C63.2698 4.33544 63.1218 4.43541 62.9826 4.5263C62.913 4.57175 62.8433 4.62628 62.7737 4.67173C62.5561 4.82624 62.3386 4.98075 62.121 5.14435C61.9034 5.30796 61.6859 5.47156 61.477 5.63516C61.2681 5.79876 61.068 5.96236 60.8678 6.12596C60.7895 6.18959 60.7111 6.2623 60.6328 6.32592C60.4762 6.46225 60.3195 6.59859 60.1629 6.73492C60.0845 6.80763 60.0062 6.87126 59.9279 6.94397C59.5537 7.28935 59.1794 7.64382 58.8139 8.00738C58.7269 8.08918 58.6486 8.18007 58.5702 8.26187C58.4832 8.34367 58.4049 8.43456 58.3266 8.51636L52.5131 14.7059L46.6995 8.51636C41.5213 3.02663 34.6548 0 27.3531 0C20.0514 0 13.1761 3.02663 8.00663 8.53454C2.84583 14.0334 0 21.3409 0 29.121C0 36.9012 2.84583 44.2087 8.00663 49.7076L33.1492 76.4836C38.484 82.1642 45.4811 85 52.4869 85C52.5914 85 52.6958 85 52.8002 85C52.9221 85 53.0352 85 53.1571 85C53.4791 85 53.8011 84.9727 54.1231 84.9546C54.5234 84.9273 54.9324 84.8909 55.3328 84.8455C55.4285 84.8364 55.5242 84.8273 55.6113 84.8091C55.6461 84.8091 55.6809 84.8 55.7244 84.791C55.8462 84.7728 55.9681 84.7546 56.0899 84.7455C56.1421 84.7455 56.1857 84.7273 56.2379 84.7273C56.3858 84.7092 56.5425 84.6819 56.6904 84.6546C56.7078 84.6546 56.7252 84.6546 56.7513 84.6455C62.2777 83.7275 67.5864 81.0099 71.8421 76.4836L96.9847 49.7076C97.15 49.5349 97.3067 49.3622 97.4633 49.1895C97.4633 49.1895 97.472 49.1804 97.4807 49.1713C97.5591 49.0804 97.6374 48.9895 97.7244 48.8986C98.1073 48.4624 98.4641 48.017 98.8123 47.5626C98.8819 47.4717 98.9515 47.3808 99.0211 47.2899C102.894 42.1455 105 35.8014 105 29.112C105 21.3318 102.154 14.0152 96.9934 8.51636" fill="#EAEAEA"/>
</svg>
